<svg width="1442" height="855" viewBox="0 0 1442 855" fill="none" xmlns="http://www.w3.org/2000/svg">
<g opacity="0.2" clip-path="url(#clip0_52_10)">
<rect width="1442" height="855" fill="#111111"/>
<path fill-rule="evenodd" clip-rule="evenodd" d="M0 -68H70.04V2.04001H0V-68ZM1.37333 -66.6267V0.666672H68.6667V-66.6267H1.37333Z" fill="white" fill-opacity="0.08"/>
<path fill-rule="evenodd" clip-rule="evenodd" d="M70.04 -68H140.08V2.04001H70.04V-68ZM71.4134 -66.6267V0.666672H138.707V-66.6267H71.4134Z" fill="white" fill-opacity="0.08"/>
<path fill-rule="evenodd" clip-rule="evenodd" d="M140.08 -68H210.12V2.04001H140.08V-68ZM141.453 -66.6267V0.666672H208.747V-66.6267H141.453Z" fill="white" fill-opacity="0.08"/>
<path fill-rule="evenodd" clip-rule="evenodd" d="M210.12 -68H280.16V2.04001H210.12V-68ZM211.493 -66.6267V0.666672H278.787V-66.6267H211.493Z" fill="white" fill-opacity="0.08"/>
<path fill-rule="evenodd" clip-rule="evenodd" d="M280.16 -68H350.2V2.04001H280.16V-68ZM281.533 -66.6267V0.666672H348.827V-66.6267H281.533Z" fill="white" fill-opacity="0.08"/>
<path fill-rule="evenodd" clip-rule="evenodd" d="M350.2 -68H420.24V2.04001H350.2V-68ZM351.573 -66.6267V0.666672H418.867V-66.6267H351.573Z" fill="white" fill-opacity="0.08"/>
<path fill-rule="evenodd" clip-rule="evenodd" d="M420.24 -68H490.28V2.04001H420.24V-68ZM421.613 -66.6267V0.666672H488.907V-66.6267H421.613Z" fill="white" fill-opacity="0.08"/>
<path fill-rule="evenodd" clip-rule="evenodd" d="M490.28 -68H560.32V2.04001H490.28V-68ZM491.653 -66.6267V0.666672H558.947V-66.6267H491.653Z" fill="white" fill-opacity="0.08"/>
<path fill-rule="evenodd" clip-rule="evenodd" d="M560.32 -68H630.36V2.04001H560.32V-68ZM561.693 -66.6267V0.666672H628.987V-66.6267H561.693Z" fill="white" fill-opacity="0.08"/>
<path fill-rule="evenodd" clip-rule="evenodd" d="M630.36 -68H700.4V2.04001H630.36V-68ZM631.733 -66.6267V0.666672H699.027V-66.6267H631.733Z" fill="white" fill-opacity="0.08"/>
<path fill-rule="evenodd" clip-rule="evenodd" d="M700.4 -68H770.44V2.04001H700.4V-68ZM701.773 -66.6267V0.666672H769.067V-66.6267H701.773Z" fill="white" fill-opacity="0.08"/>
<path fill-rule="evenodd" clip-rule="evenodd" d="M770.44 -68H840.48V2.04001H770.44V-68ZM771.814 -66.6267V0.666672H839.107V-66.6267H771.814Z" fill="white" fill-opacity="0.08"/>
<path fill-rule="evenodd" clip-rule="evenodd" d="M840.48 -68H910.52V2.04001H840.48V-68ZM841.854 -66.6267V0.666672H909.147V-66.6267H841.854Z" fill="white" fill-opacity="0.08"/>
<path fill-rule="evenodd" clip-rule="evenodd" d="M910.52 -68H980.56V2.04001H910.52V-68ZM911.894 -66.6267V0.666672H979.187V-66.6267H911.894Z" fill="white" fill-opacity="0.08"/>
<path fill-rule="evenodd" clip-rule="evenodd" d="M980.56 -68H1050.6V2.04001H980.56V-68ZM981.934 -66.6267V0.666672H1049.23V-66.6267H981.934Z" fill="white" fill-opacity="0.08"/>
<path fill-rule="evenodd" clip-rule="evenodd" d="M1050.6 -68H1120.64V2.04001H1050.6V-68ZM1051.97 -66.6267V0.666672H1119.27V-66.6267H1051.97Z" fill="white" fill-opacity="0.08"/>
<path fill-rule="evenodd" clip-rule="evenodd" d="M1120.64 -68H1190.68V2.04001H1120.64V-68ZM1122.01 -66.6267V0.666672H1189.31V-66.6267H1122.01Z" fill="white" fill-opacity="0.08"/>
<path fill-rule="evenodd" clip-rule="evenodd" d="M1190.68 -68H1260.72V2.04001H1190.68V-68ZM1192.05 -66.6267V0.666672H1259.35V-66.6267H1192.05Z" fill="white" fill-opacity="0.08"/>
<path fill-rule="evenodd" clip-rule="evenodd" d="M1260.72 -68H1330.76V2.04001H1260.72V-68ZM1262.09 -66.6267V0.666672H1329.39V-66.6267H1262.09Z" fill="white" fill-opacity="0.08"/>
<path fill-rule="evenodd" clip-rule="evenodd" d="M1330.76 -68H1400.8V2.04001H1330.76V-68ZM1332.13 -66.6267V0.666672H1399.43V-66.6267H1332.13Z" fill="white" fill-opacity="0.08"/>
<path fill-rule="evenodd" clip-rule="evenodd" d="M1400.8 -68H1470.84V2.04001H1400.8V-68ZM1402.17 -66.6267V0.666672H1469.47V-66.6267H1402.17Z" fill="white" fill-opacity="0.08"/>
<path fill-rule="evenodd" clip-rule="evenodd" d="M0 0.666626H70.04V70.7066H0V0.666626ZM1.37333 2.03996V69.3333H68.6667V2.03996H1.37333Z" fill="white" fill-opacity="0.08"/>
<path fill-rule="evenodd" clip-rule="evenodd" d="M70.04 0.666626H140.08V70.7066H70.04V0.666626ZM71.4134 2.03996V69.3333H138.707V2.03996H71.4134Z" fill="white" fill-opacity="0.08"/>
<path d="M140.08 0.666626H208.747V69.3333H140.08V0.666626Z" fill="white" fill-opacity="0.08"/>
<path fill-rule="evenodd" clip-rule="evenodd" d="M208.747 0.666626H278.787V70.7066H208.747V0.666626ZM210.12 2.03996V69.3333H277.413V2.03996H210.12Z" fill="white" fill-opacity="0.08"/>
<path fill-rule="evenodd" clip-rule="evenodd" d="M278.787 0.666626H348.827V70.7066H278.787V0.666626ZM280.16 2.03996V69.3333H347.453V2.03996H280.16Z" fill="white" fill-opacity="0.08"/>
<path fill-rule="evenodd" clip-rule="evenodd" d="M348.827 0.666626H418.867V70.7066H348.827V0.666626ZM350.2 2.03996V69.3333H417.493V2.03996H350.2Z" fill="white" fill-opacity="0.08"/>
<path fill-rule="evenodd" clip-rule="evenodd" d="M418.867 0.666626H488.907V70.7066H418.867V0.666626ZM420.24 2.03996V69.3333H487.533V2.03996H420.24Z" fill="white" fill-opacity="0.08"/>
<path fill-rule="evenodd" clip-rule="evenodd" d="M488.907 0.666626H558.947V70.7066H488.907V0.666626ZM490.28 2.03996V69.3333H557.573V2.03996H490.28Z" fill="white" fill-opacity="0.08"/>
<path fill-rule="evenodd" clip-rule="evenodd" d="M558.947 0.666626H628.987V70.7066H558.947V0.666626ZM560.32 2.03996V69.3333H627.613V2.03996H560.32Z" fill="white" fill-opacity="0.08"/>
<path fill-rule="evenodd" clip-rule="evenodd" d="M628.987 0.666626H699.027V70.7066H628.987V0.666626ZM630.36 2.03996V69.3333H697.653V2.03996H630.36Z" fill="white" fill-opacity="0.08"/>
<path d="M699.027 0.666626H767.693V69.3333H699.027V0.666626Z" fill="white" fill-opacity="0.08"/>
<path fill-rule="evenodd" clip-rule="evenodd" d="M767.693 0.666626H837.733V70.7066H767.693V0.666626ZM769.067 2.03996V69.3333H836.36V2.03996H769.067Z" fill="white" fill-opacity="0.08"/>
<path fill-rule="evenodd" clip-rule="evenodd" d="M837.733 0.666626H907.773V70.7066H837.733V0.666626ZM839.107 2.03996V69.3333H906.4V2.03996H839.107Z" fill="white" fill-opacity="0.08"/>
<path fill-rule="evenodd" clip-rule="evenodd" d="M907.773 0.666626H977.813V70.7066H907.773V0.666626ZM909.147 2.03996V69.3333H976.44V2.03996H909.147Z" fill="white" fill-opacity="0.08"/>
<path fill-rule="evenodd" clip-rule="evenodd" d="M977.813 0.666626H1047.85V70.7066H977.813V0.666626ZM979.187 2.03996V69.3333H1046.48V2.03996H979.187Z" fill="white" fill-opacity="0.08"/>
<path fill-rule="evenodd" clip-rule="evenodd" d="M1047.85 0.666626H1117.89V70.7066H1047.85V0.666626ZM1049.23 2.03996V69.3333H1116.52V2.03996H1049.23Z" fill="white" fill-opacity="0.08"/>
<path fill-rule="evenodd" clip-rule="evenodd" d="M1117.89 0.666626H1187.93V70.7066H1117.89V0.666626ZM1119.27 2.03996V69.3333H1186.56V2.03996H1119.27Z" fill="white" fill-opacity="0.08"/>
<path fill-rule="evenodd" clip-rule="evenodd" d="M1187.93 0.666626H1257.97V70.7066H1187.93V0.666626ZM1189.31 2.03996V69.3333H1256.6V2.03996H1189.31Z" fill="white" fill-opacity="0.08"/>
<path fill-rule="evenodd" clip-rule="evenodd" d="M1257.97 0.666626H1328.01V70.7066H1257.97V0.666626ZM1259.35 2.03996V69.3333H1326.64V2.03996H1259.35Z" fill="white" fill-opacity="0.08"/>
<path fill-rule="evenodd" clip-rule="evenodd" d="M1328.01 0.666626H1398.05V70.7066H1328.01V0.666626ZM1329.39 2.03996V69.3333H1396.68V2.03996H1329.39Z" fill="white" fill-opacity="0.08"/>
<path fill-rule="evenodd" clip-rule="evenodd" d="M1398.05 0.666626H1468.09V70.7066H1398.05V0.666626ZM1399.43 2.03996V69.3333H1466.72V2.03996H1399.43Z" fill="white" fill-opacity="0.08"/>
<path fill-rule="evenodd" clip-rule="evenodd" d="M0 69.3334H70.04V139.373H0V69.3334ZM1.37333 70.7067V138H68.6667V70.7067H1.37333Z" fill="white" fill-opacity="0.08"/>
<path fill-rule="evenodd" clip-rule="evenodd" d="M70.04 69.3334H140.08V139.373H70.04V69.3334ZM71.4134 70.7067V138H138.707V70.7067H71.4134Z" fill="white" fill-opacity="0.08"/>
<path fill-rule="evenodd" clip-rule="evenodd" d="M140.08 69.3334H210.12V139.373H140.08V69.3334ZM141.453 70.7067V138H208.747V70.7067H141.453Z" fill="white" fill-opacity="0.08"/>
<path fill-rule="evenodd" clip-rule="evenodd" d="M210.12 69.3334H280.16V139.373H210.12V69.3334ZM211.493 70.7067V138H278.787V70.7067H211.493Z" fill="white" fill-opacity="0.08"/>
<path fill-rule="evenodd" clip-rule="evenodd" d="M280.16 69.3334H350.2V139.373H280.16V69.3334ZM281.533 70.7067V138H348.827V70.7067H281.533Z" fill="white" fill-opacity="0.08"/>
<path fill-rule="evenodd" clip-rule="evenodd" d="M350.2 69.3334H420.24V139.373H350.2V69.3334ZM351.573 70.7067V138H418.867V70.7067H351.573Z" fill="white" fill-opacity="0.08"/>
<path fill-rule="evenodd" clip-rule="evenodd" d="M420.24 69.3334H490.28V139.373H420.24V69.3334ZM421.613 70.7067V138H488.907V70.7067H421.613Z" fill="white" fill-opacity="0.08"/>
<path fill-rule="evenodd" clip-rule="evenodd" d="M490.28 69.3334H560.32V139.373H490.28V69.3334ZM491.653 70.7067V138H558.947V70.7067H491.653Z" fill="white" fill-opacity="0.08"/>
<path fill-rule="evenodd" clip-rule="evenodd" d="M560.32 69.3334H630.36V139.373H560.32V69.3334ZM561.693 70.7067V138H628.987V70.7067H561.693Z" fill="white" fill-opacity="0.08"/>
<path fill-rule="evenodd" clip-rule="evenodd" d="M630.36 69.3334H700.4V139.373H630.36V69.3334ZM631.733 70.7067V138H699.027V70.7067H631.733Z" fill="white" fill-opacity="0.08"/>
<path fill-rule="evenodd" clip-rule="evenodd" d="M700.4 69.3334H770.44V139.373H700.4V69.3334ZM701.773 70.7067V138H769.067V70.7067H701.773Z" fill="white" fill-opacity="0.08"/>
<path fill-rule="evenodd" clip-rule="evenodd" d="M770.44 69.3334H840.48V139.373H770.44V69.3334ZM771.814 70.7067V138H839.107V70.7067H771.814Z" fill="white" fill-opacity="0.08"/>
<path fill-rule="evenodd" clip-rule="evenodd" d="M840.48 69.3334H910.52V139.373H840.48V69.3334ZM841.854 70.7067V138H909.147V70.7067H841.854Z" fill="white" fill-opacity="0.08"/>
<path fill-rule="evenodd" clip-rule="evenodd" d="M910.52 69.3334H980.56V139.373H910.52V69.3334ZM911.894 70.7067V138H979.187V70.7067H911.894Z" fill="white" fill-opacity="0.08"/>
<path fill-rule="evenodd" clip-rule="evenodd" d="M980.56 69.3334H1050.6V139.373H980.56V69.3334ZM981.934 70.7067V138H1049.23V70.7067H981.934Z" fill="white" fill-opacity="0.08"/>
<path fill-rule="evenodd" clip-rule="evenodd" d="M1050.6 69.3334H1120.64V139.373H1050.6V69.3334ZM1051.97 70.7067V138H1119.27V70.7067H1051.97Z" fill="white" fill-opacity="0.08"/>
<path d="M1120.64 69.3334H1189.31V138H1120.64V69.3334Z" fill="white" fill-opacity="0.08"/>
<path fill-rule="evenodd" clip-rule="evenodd" d="M1189.31 69.3334H1259.35V139.373H1189.31V69.3334ZM1190.68 70.7067V138H1257.97V70.7067H1190.68Z" fill="white" fill-opacity="0.08"/>
<path fill-rule="evenodd" clip-rule="evenodd" d="M1259.35 69.3334H1329.39V139.373H1259.35V69.3334ZM1260.72 70.7067V138H1328.01V70.7067H1260.72Z" fill="white" fill-opacity="0.08"/>
<path fill-rule="evenodd" clip-rule="evenodd" d="M1329.39 69.3334H1399.43V139.373H1329.39V69.3334ZM1330.76 70.7067V138H1398.05V70.7067H1330.76Z" fill="white" fill-opacity="0.08"/>
<path fill-rule="evenodd" clip-rule="evenodd" d="M1399.43 69.3334H1469.47V139.373H1399.43V69.3334ZM1400.8 70.7067V138H1468.09V70.7067H1400.8Z" fill="white" fill-opacity="0.08"/>
<path fill-rule="evenodd" clip-rule="evenodd" d="M0 138H70.04V208.04H0V138ZM1.37333 139.373V206.667H68.6667V139.373H1.37333Z" fill="white" fill-opacity="0.08"/>
<path fill-rule="evenodd" clip-rule="evenodd" d="M70.04 138H140.08V208.04H70.04V138ZM71.4134 139.373V206.667H138.707V139.373H71.4134Z" fill="white" fill-opacity="0.08"/>
<path fill-rule="evenodd" clip-rule="evenodd" d="M140.08 138H210.12V208.04H140.08V138ZM141.453 139.373V206.667H208.747V139.373H141.453Z" fill="white" fill-opacity="0.08"/>
<path fill-rule="evenodd" clip-rule="evenodd" d="M210.12 138H280.16V208.04H210.12V138ZM211.493 139.373V206.667H278.787V139.373H211.493Z" fill="white" fill-opacity="0.08"/>
<path fill-rule="evenodd" clip-rule="evenodd" d="M280.16 138H350.2V208.04H280.16V138ZM281.533 139.373V206.667H348.827V139.373H281.533Z" fill="white" fill-opacity="0.08"/>
<path fill-rule="evenodd" clip-rule="evenodd" d="M350.2 138H420.24V208.04H350.2V138ZM351.573 139.373V206.667H418.867V139.373H351.573Z" fill="white" fill-opacity="0.08"/>
<path fill-rule="evenodd" clip-rule="evenodd" d="M420.24 138H490.28V208.04H420.24V138ZM421.613 139.373V206.667H488.907V139.373H421.613Z" fill="white" fill-opacity="0.08"/>
<path fill-rule="evenodd" clip-rule="evenodd" d="M490.28 138H560.32V208.04H490.28V138ZM491.653 139.373V206.667H558.947V139.373H491.653Z" fill="white" fill-opacity="0.08"/>
<path fill-rule="evenodd" clip-rule="evenodd" d="M560.32 138H630.36V208.04H560.32V138ZM561.693 139.373V206.667H628.987V139.373H561.693Z" fill="white" fill-opacity="0.08"/>
<path fill-rule="evenodd" clip-rule="evenodd" d="M630.36 138H700.4V208.04H630.36V138ZM631.733 139.373V206.667H699.027V139.373H631.733Z" fill="white" fill-opacity="0.08"/>
<path fill-rule="evenodd" clip-rule="evenodd" d="M700.4 138H770.44V208.04H700.4V138ZM701.773 139.373V206.667H769.067V139.373H701.773Z" fill="white" fill-opacity="0.08"/>
<path fill-rule="evenodd" clip-rule="evenodd" d="M770.44 138H840.48V208.04H770.44V138ZM771.814 139.373V206.667H839.107V139.373H771.814Z" fill="white" fill-opacity="0.08"/>
<path fill-rule="evenodd" clip-rule="evenodd" d="M840.48 138H910.52V208.04H840.48V138ZM841.854 139.373V206.667H909.147V139.373H841.854Z" fill="white" fill-opacity="0.08"/>
<path fill-rule="evenodd" clip-rule="evenodd" d="M910.52 138H980.56V208.04H910.52V138ZM911.894 139.373V206.667H979.187V139.373H911.894Z" fill="white" fill-opacity="0.08"/>
<path fill-rule="evenodd" clip-rule="evenodd" d="M980.56 138H1050.6V208.04H980.56V138ZM981.934 139.373V206.667H1049.23V139.373H981.934Z" fill="white" fill-opacity="0.08"/>
<path fill-rule="evenodd" clip-rule="evenodd" d="M1050.6 138H1120.64V208.04H1050.6V138ZM1051.97 139.373V206.667H1119.27V139.373H1051.97Z" fill="white" fill-opacity="0.08"/>
<path fill-rule="evenodd" clip-rule="evenodd" d="M1120.64 138H1190.68V208.04H1120.64V138ZM1122.01 139.373V206.667H1189.31V139.373H1122.01Z" fill="white" fill-opacity="0.08"/>
<path fill-rule="evenodd" clip-rule="evenodd" d="M1190.68 138H1260.72V208.04H1190.68V138ZM1192.05 139.373V206.667H1259.35V139.373H1192.05Z" fill="white" fill-opacity="0.08"/>
<path fill-rule="evenodd" clip-rule="evenodd" d="M1260.72 138H1330.76V208.04H1260.72V138ZM1262.09 139.373V206.667H1329.39V139.373H1262.09Z" fill="white" fill-opacity="0.08"/>
<path fill-rule="evenodd" clip-rule="evenodd" d="M1330.76 138H1400.8V208.04H1330.76V138ZM1332.13 139.373V206.667H1399.43V139.373H1332.13Z" fill="white" fill-opacity="0.08"/>
<path fill-rule="evenodd" clip-rule="evenodd" d="M1400.8 138H1470.84V208.04H1400.8V138ZM1402.17 139.373V206.667H1469.47V139.373H1402.17Z" fill="white" fill-opacity="0.08"/>
<path fill-rule="evenodd" clip-rule="evenodd" d="M0 206.667H70.04V276.707H0V206.667ZM1.37333 208.04V275.333H68.6667V208.04H1.37333Z" fill="white" fill-opacity="0.08"/>
<path fill-rule="evenodd" clip-rule="evenodd" d="M70.04 206.667H140.08V276.707H70.04V206.667ZM71.4134 208.04V275.333H138.707V208.04H71.4134Z" fill="white" fill-opacity="0.08"/>
<path fill-rule="evenodd" clip-rule="evenodd" d="M140.08 206.667H210.12V276.707H140.08V206.667ZM141.453 208.04V275.333H208.747V208.04H141.453Z" fill="white" fill-opacity="0.08"/>
<path d="M210.12 206.667H278.787V275.333H210.12V206.667Z" fill="white" fill-opacity="0.08"/>
<path fill-rule="evenodd" clip-rule="evenodd" d="M278.787 206.667H348.827V276.707H278.787V206.667ZM280.16 208.04V275.333H347.453V208.04H280.16Z" fill="white" fill-opacity="0.08"/>
<path fill-rule="evenodd" clip-rule="evenodd" d="M348.827 206.667H418.867V276.707H348.827V206.667ZM350.2 208.04V275.333H417.493V208.04H350.2Z" fill="white" fill-opacity="0.08"/>
<path fill-rule="evenodd" clip-rule="evenodd" d="M418.867 206.667H488.907V276.707H418.867V206.667ZM420.24 208.04V275.333H487.533V208.04H420.24Z" fill="white" fill-opacity="0.08"/>
<path fill-rule="evenodd" clip-rule="evenodd" d="M488.907 206.667H558.947V276.707H488.907V206.667ZM490.28 208.04V275.333H557.573V208.04H490.28Z" fill="white" fill-opacity="0.08"/>
<path fill-rule="evenodd" clip-rule="evenodd" d="M558.947 206.667H628.987V276.707H558.947V206.667ZM560.32 208.04V275.333H627.613V208.04H560.32Z" fill="white" fill-opacity="0.08"/>
<path fill-rule="evenodd" clip-rule="evenodd" d="M628.987 206.667H699.027V276.707H628.987V206.667ZM630.36 208.04V275.333H697.653V208.04H630.36Z" fill="white" fill-opacity="0.08"/>
<path fill-rule="evenodd" clip-rule="evenodd" d="M699.027 206.667H769.067V276.707H699.027V206.667ZM700.4 208.04V275.333H767.693V208.04H700.4Z" fill="white" fill-opacity="0.08"/>
<path fill-rule="evenodd" clip-rule="evenodd" d="M769.067 206.667H839.107V276.707H769.067V206.667ZM770.44 208.04V275.333H837.733V208.04H770.44Z" fill="white" fill-opacity="0.08"/>
<path fill-rule="evenodd" clip-rule="evenodd" d="M839.107 206.667H909.147V276.707H839.107V206.667ZM840.48 208.04V275.333H907.773V208.04H840.48Z" fill="white" fill-opacity="0.08"/>
<path d="M909.147 206.667H977.814V275.333H909.147V206.667Z" fill="white" fill-opacity="0.08"/>
<path fill-rule="evenodd" clip-rule="evenodd" d="M977.814 206.667H1047.85V276.707H977.814V206.667ZM979.187 208.04V275.333H1046.48V208.04H979.187Z" fill="white" fill-opacity="0.08"/>
<path fill-rule="evenodd" clip-rule="evenodd" d="M1047.85 206.667H1117.89V276.707H1047.85V206.667ZM1049.23 208.04V275.333H1116.52V208.04H1049.23Z" fill="white" fill-opacity="0.08"/>
<path fill-rule="evenodd" clip-rule="evenodd" d="M1117.89 206.667H1187.93V276.707H1117.89V206.667ZM1119.27 208.04V275.333H1186.56V208.04H1119.27Z" fill="white" fill-opacity="0.08"/>
<path fill-rule="evenodd" clip-rule="evenodd" d="M1187.93 206.667H1257.97V276.707H1187.93V206.667ZM1189.31 208.04V275.333H1256.6V208.04H1189.31Z" fill="white" fill-opacity="0.08"/>
<path fill-rule="evenodd" clip-rule="evenodd" d="M1257.97 206.667H1328.01V276.707H1257.97V206.667ZM1259.35 208.04V275.333H1326.64V208.04H1259.35Z" fill="white" fill-opacity="0.08"/>
<path fill-rule="evenodd" clip-rule="evenodd" d="M1328.01 206.667H1398.05V276.707H1328.01V206.667ZM1329.39 208.04V275.333H1396.68V208.04H1329.39Z" fill="white" fill-opacity="0.08"/>
<path fill-rule="evenodd" clip-rule="evenodd" d="M1398.05 206.667H1468.09V276.707H1398.05V206.667ZM1399.43 208.04V275.333H1466.72V208.04H1399.43Z" fill="white" fill-opacity="0.08"/>
<path fill-rule="evenodd" clip-rule="evenodd" d="M0 275.333H70.04V345.373H0V275.333ZM1.37333 276.707V344H68.6667V276.707H1.37333Z" fill="white" fill-opacity="0.08"/>
<path fill-rule="evenodd" clip-rule="evenodd" d="M70.04 275.333H140.08V345.373H70.04V275.333ZM71.4134 276.707V344H138.707V276.707H71.4134Z" fill="white" fill-opacity="0.08"/>
<path fill-rule="evenodd" clip-rule="evenodd" d="M140.08 275.333H210.12V345.373H140.08V275.333ZM141.453 276.707V344H208.747V276.707H141.453Z" fill="white" fill-opacity="0.08"/>
<path fill-rule="evenodd" clip-rule="evenodd" d="M210.12 275.333H280.16V345.373H210.12V275.333ZM211.493 276.707V344H278.787V276.707H211.493Z" fill="white" fill-opacity="0.08"/>
<path fill-rule="evenodd" clip-rule="evenodd" d="M280.16 275.333H350.2V345.373H280.16V275.333ZM281.533 276.707V344H348.827V276.707H281.533Z" fill="white" fill-opacity="0.08"/>
<path fill-rule="evenodd" clip-rule="evenodd" d="M350.2 275.333H420.24V345.373H350.2V275.333ZM351.573 276.707V344H418.867V276.707H351.573Z" fill="white" fill-opacity="0.08"/>
<path fill-rule="evenodd" clip-rule="evenodd" d="M420.24 275.333H490.28V345.373H420.24V275.333ZM421.613 276.707V344H488.907V276.707H421.613Z" fill="white" fill-opacity="0.08"/>
<path fill-rule="evenodd" clip-rule="evenodd" d="M490.28 275.333H560.32V345.373H490.28V275.333ZM491.653 276.707V344H558.947V276.707H491.653Z" fill="white" fill-opacity="0.08"/>
<path fill-rule="evenodd" clip-rule="evenodd" d="M560.32 275.333H630.36V345.373H560.32V275.333ZM561.693 276.707V344H628.987V276.707H561.693Z" fill="white" fill-opacity="0.08"/>
<path fill-rule="evenodd" clip-rule="evenodd" d="M630.36 275.333H700.4V345.373H630.36V275.333ZM631.733 276.707V344H699.027V276.707H631.733Z" fill="white" fill-opacity="0.08"/>
<path fill-rule="evenodd" clip-rule="evenodd" d="M700.4 275.333H770.44V345.373H700.4V275.333ZM701.773 276.707V344H769.067V276.707H701.773Z" fill="white" fill-opacity="0.08"/>
<path fill-rule="evenodd" clip-rule="evenodd" d="M770.44 275.333H840.48V345.373H770.44V275.333ZM771.814 276.707V344H839.107V276.707H771.814Z" fill="white" fill-opacity="0.08"/>
<path fill-rule="evenodd" clip-rule="evenodd" d="M840.48 275.333H910.52V345.373H840.48V275.333ZM841.854 276.707V344H909.147V276.707H841.854Z" fill="white" fill-opacity="0.08"/>
<path fill-rule="evenodd" clip-rule="evenodd" d="M910.52 275.333H980.56V345.373H910.52V275.333ZM911.894 276.707V344H979.187V276.707H911.894Z" fill="white" fill-opacity="0.08"/>
<path fill-rule="evenodd" clip-rule="evenodd" d="M980.56 275.333H1050.6V345.373H980.56V275.333ZM981.934 276.707V344H1049.23V276.707H981.934Z" fill="white" fill-opacity="0.08"/>
<path fill-rule="evenodd" clip-rule="evenodd" d="M1050.6 275.333H1120.64V345.373H1050.6V275.333ZM1051.97 276.707V344H1119.27V276.707H1051.97Z" fill="white" fill-opacity="0.08"/>
<path fill-rule="evenodd" clip-rule="evenodd" d="M1120.64 275.333H1190.68V345.373H1120.64V275.333ZM1122.01 276.707V344H1189.31V276.707H1122.01Z" fill="white" fill-opacity="0.08"/>
<path fill-rule="evenodd" clip-rule="evenodd" d="M1190.68 275.333H1260.72V345.373H1190.68V275.333ZM1192.05 276.707V344H1259.35V276.707H1192.05Z" fill="white" fill-opacity="0.08"/>
<path d="M1260.72 275.333H1329.39V344H1260.72V275.333Z" fill="white" fill-opacity="0.08"/>
<path fill-rule="evenodd" clip-rule="evenodd" d="M1329.39 275.333H1399.43V345.373H1329.39V275.333ZM1330.76 276.707V344H1398.05V276.707H1330.76Z" fill="white" fill-opacity="0.08"/>
<path fill-rule="evenodd" clip-rule="evenodd" d="M1399.43 275.333H1469.47V345.373H1399.43V275.333ZM1400.8 276.707V344H1468.09V276.707H1400.8Z" fill="white" fill-opacity="0.08"/>
<path fill-rule="evenodd" clip-rule="evenodd" d="M0 344H70.04V414.04H0V344ZM1.37333 345.373V412.667H68.6667V345.373H1.37333Z" fill="white" fill-opacity="0.08"/>
<path fill-rule="evenodd" clip-rule="evenodd" d="M70.04 344H140.08V414.04H70.04V344ZM71.4134 345.373V412.667H138.707V345.373H71.4134Z" fill="white" fill-opacity="0.08"/>
<path fill-rule="evenodd" clip-rule="evenodd" d="M140.08 344H210.12V414.04H140.08V344ZM141.453 345.373V412.667H208.747V345.373H141.453Z" fill="white" fill-opacity="0.08"/>
<path fill-rule="evenodd" clip-rule="evenodd" d="M210.12 344H280.16V414.04H210.12V344ZM211.493 345.373V412.667H278.787V345.373H211.493Z" fill="white" fill-opacity="0.08"/>
<path fill-rule="evenodd" clip-rule="evenodd" d="M280.16 344H350.2V414.04H280.16V344ZM281.533 345.373V412.667H348.827V345.373H281.533Z" fill="white" fill-opacity="0.08"/>
<path fill-rule="evenodd" clip-rule="evenodd" d="M350.2 344H420.24V414.04H350.2V344ZM351.573 345.373V412.667H418.867V345.373H351.573Z" fill="white" fill-opacity="0.08"/>
<path fill-rule="evenodd" clip-rule="evenodd" d="M420.24 344H490.28V414.04H420.24V344ZM421.613 345.373V412.667H488.907V345.373H421.613Z" fill="white" fill-opacity="0.08"/>
<path fill-rule="evenodd" clip-rule="evenodd" d="M490.28 344H560.32V414.04H490.28V344ZM491.653 345.373V412.667H558.947V345.373H491.653Z" fill="white" fill-opacity="0.08"/>
<path fill-rule="evenodd" clip-rule="evenodd" d="M560.32 344H630.36V414.04H560.32V344ZM561.693 345.373V412.667H628.987V345.373H561.693Z" fill="white" fill-opacity="0.08"/>
<path fill-rule="evenodd" clip-rule="evenodd" d="M630.36 344H700.4V414.04H630.36V344ZM631.733 345.373V412.667H699.027V345.373H631.733Z" fill="white" fill-opacity="0.08"/>
<path fill-rule="evenodd" clip-rule="evenodd" d="M700.4 344H770.44V414.04H700.4V344ZM701.773 345.373V412.667H769.067V345.373H701.773Z" fill="white" fill-opacity="0.08"/>
<path fill-rule="evenodd" clip-rule="evenodd" d="M770.44 344H840.48V414.04H770.44V344ZM771.814 345.373V412.667H839.107V345.373H771.814Z" fill="white" fill-opacity="0.08"/>
<path fill-rule="evenodd" clip-rule="evenodd" d="M840.48 344H910.52V414.04H840.48V344ZM841.854 345.373V412.667H909.147V345.373H841.854Z" fill="white" fill-opacity="0.08"/>
<path fill-rule="evenodd" clip-rule="evenodd" d="M910.52 344H980.56V414.04H910.52V344ZM911.894 345.373V412.667H979.187V345.373H911.894Z" fill="white" fill-opacity="0.08"/>
<path fill-rule="evenodd" clip-rule="evenodd" d="M980.56 344H1050.6V414.04H980.56V344ZM981.934 345.373V412.667H1049.23V345.373H981.934Z" fill="white" fill-opacity="0.08"/>
<path fill-rule="evenodd" clip-rule="evenodd" d="M1050.6 344H1120.64V414.04H1050.6V344ZM1051.97 345.373V412.667H1119.27V345.373H1051.97Z" fill="white" fill-opacity="0.08"/>
<path fill-rule="evenodd" clip-rule="evenodd" d="M1120.64 344H1190.68V414.04H1120.64V344ZM1122.01 345.373V412.667H1189.31V345.373H1122.01Z" fill="white" fill-opacity="0.08"/>
<path fill-rule="evenodd" clip-rule="evenodd" d="M1190.68 344H1260.72V414.04H1190.68V344ZM1192.05 345.373V412.667H1259.35V345.373H1192.05Z" fill="white" fill-opacity="0.08"/>
<path fill-rule="evenodd" clip-rule="evenodd" d="M1260.72 344H1330.76V414.04H1260.72V344ZM1262.09 345.373V412.667H1329.39V345.373H1262.09Z" fill="white" fill-opacity="0.08"/>
<path fill-rule="evenodd" clip-rule="evenodd" d="M1330.76 344H1400.8V414.04H1330.76V344ZM1332.13 345.373V412.667H1399.43V345.373H1332.13Z" fill="white" fill-opacity="0.08"/>
<path fill-rule="evenodd" clip-rule="evenodd" d="M1400.8 344H1470.84V414.04H1400.8V344ZM1402.17 345.373V412.667H1469.47V345.373H1402.17Z" fill="white" fill-opacity="0.08"/>
<path fill-rule="evenodd" clip-rule="evenodd" d="M0 412.667H70.04V482.707H0V412.667ZM1.37333 414.04V481.333H68.6667V414.04H1.37333Z" fill="white" fill-opacity="0.08"/>
<path fill-rule="evenodd" clip-rule="evenodd" d="M70.04 412.667H140.08V482.707H70.04V412.667ZM71.4134 414.04V481.333H138.707V414.04H71.4134Z" fill="white" fill-opacity="0.08"/>
<path fill-rule="evenodd" clip-rule="evenodd" d="M140.08 412.667H210.12V482.707H140.08V412.667ZM141.453 414.04V481.333H208.747V414.04H141.453Z" fill="white" fill-opacity="0.08"/>
<path fill-rule="evenodd" clip-rule="evenodd" d="M210.12 412.667H280.16V482.707H210.12V412.667ZM211.493 414.04V481.333H278.787V414.04H211.493Z" fill="white" fill-opacity="0.08"/>
<path fill-rule="evenodd" clip-rule="evenodd" d="M280.16 412.667H350.2V482.707H280.16V412.667ZM281.533 414.04V481.333H348.827V414.04H281.533Z" fill="white" fill-opacity="0.08"/>
<path fill-rule="evenodd" clip-rule="evenodd" d="M350.2 412.667H420.24V482.707H350.2V412.667ZM351.573 414.04V481.333H418.867V414.04H351.573Z" fill="white" fill-opacity="0.08"/>
<path fill-rule="evenodd" clip-rule="evenodd" d="M420.24 412.667H490.28V482.707H420.24V412.667ZM421.613 414.04V481.333H488.907V414.04H421.613Z" fill="white" fill-opacity="0.08"/>
<path fill-rule="evenodd" clip-rule="evenodd" d="M490.28 412.667H560.32V482.707H490.28V412.667ZM491.653 414.04V481.333H558.947V414.04H491.653Z" fill="white" fill-opacity="0.08"/>
<path d="M560.32 412.667H628.987V481.333H560.32V412.667Z" fill="white" fill-opacity="0.08"/>
<path fill-rule="evenodd" clip-rule="evenodd" d="M628.987 412.667H699.027V482.707H628.987V412.667ZM630.36 414.04V481.333H697.653V414.04H630.36Z" fill="white" fill-opacity="0.08"/>
<path fill-rule="evenodd" clip-rule="evenodd" d="M699.027 412.667H769.067V482.707H699.027V412.667ZM700.4 414.04V481.333H767.693V414.04H700.4Z" fill="white" fill-opacity="0.08"/>
<path fill-rule="evenodd" clip-rule="evenodd" d="M769.067 412.667H839.107V482.707H769.067V412.667ZM770.44 414.04V481.333H837.733V414.04H770.44Z" fill="white" fill-opacity="0.08"/>
<path fill-rule="evenodd" clip-rule="evenodd" d="M839.107 412.667H909.147V482.707H839.107V412.667ZM840.48 414.04V481.333H907.773V414.04H840.48Z" fill="white" fill-opacity="0.08"/>
<path fill-rule="evenodd" clip-rule="evenodd" d="M909.147 412.667H979.187V482.707H909.147V412.667ZM910.52 414.04V481.333H977.814V414.04H910.52Z" fill="white" fill-opacity="0.08"/>
<path fill-rule="evenodd" clip-rule="evenodd" d="M979.187 412.667H1049.23V482.707H979.187V412.667ZM980.56 414.04V481.333H1047.85V414.04H980.56Z" fill="white" fill-opacity="0.08"/>
<path fill-rule="evenodd" clip-rule="evenodd" d="M1049.23 412.667H1119.27V482.707H1049.23V412.667ZM1050.6 414.04V481.333H1117.89V414.04H1050.6Z" fill="white" fill-opacity="0.08"/>
<path fill-rule="evenodd" clip-rule="evenodd" d="M1119.27 412.667H1189.31V482.707H1119.27V412.667ZM1120.64 414.04V481.333H1187.93V414.04H1120.64Z" fill="white" fill-opacity="0.08"/>
<path fill-rule="evenodd" clip-rule="evenodd" d="M1189.31 412.667H1259.35V482.707H1189.31V412.667ZM1190.68 414.04V481.333H1257.97V414.04H1190.68Z" fill="white" fill-opacity="0.08"/>
<path fill-rule="evenodd" clip-rule="evenodd" d="M1259.35 412.667H1329.39V482.707H1259.35V412.667ZM1260.72 414.04V481.333H1328.01V414.04H1260.72Z" fill="white" fill-opacity="0.08"/>
<path fill-rule="evenodd" clip-rule="evenodd" d="M1329.39 412.667H1399.43V482.707H1329.39V412.667ZM1330.76 414.04V481.333H1398.05V414.04H1330.76Z" fill="white" fill-opacity="0.08"/>
<path fill-rule="evenodd" clip-rule="evenodd" d="M1399.43 412.667H1469.47V482.707H1399.43V412.667ZM1400.8 414.04V481.333H1468.09V414.04H1400.8Z" fill="white" fill-opacity="0.08"/>
<path fill-rule="evenodd" clip-rule="evenodd" d="M0 481.333H70.04V551.373H0V481.333ZM1.37333 482.707V550H68.6667V482.707H1.37333Z" fill="white" fill-opacity="0.08"/>
<path fill-rule="evenodd" clip-rule="evenodd" d="M70.04 481.333H140.08V551.373H70.04V481.333ZM71.4134 482.707V550H138.707V482.707H71.4134Z" fill="white" fill-opacity="0.08"/>
<path fill-rule="evenodd" clip-rule="evenodd" d="M140.08 481.333H210.12V551.373H140.08V481.333ZM141.453 482.707V550H208.747V482.707H141.453Z" fill="white" fill-opacity="0.08"/>
<path fill-rule="evenodd" clip-rule="evenodd" d="M210.12 481.333H280.16V551.373H210.12V481.333ZM211.493 482.707V550H278.787V482.707H211.493Z" fill="white" fill-opacity="0.08"/>
<path d="M280.16 481.333H348.827V550H280.16V481.333Z" fill="white" fill-opacity="0.08"/>
<path fill-rule="evenodd" clip-rule="evenodd" d="M348.827 481.333H418.867V551.373H348.827V481.333ZM350.2 482.707V550H417.493V482.707H350.2Z" fill="white" fill-opacity="0.08"/>
<path fill-rule="evenodd" clip-rule="evenodd" d="M418.867 481.333H488.907V551.373H418.867V481.333ZM420.24 482.707V550H487.533V482.707H420.24Z" fill="white" fill-opacity="0.08"/>
<path fill-rule="evenodd" clip-rule="evenodd" d="M488.907 481.333H558.947V551.373H488.907V481.333ZM490.28 482.707V550H557.573V482.707H490.28Z" fill="white" fill-opacity="0.08"/>
<path fill-rule="evenodd" clip-rule="evenodd" d="M558.947 481.333H628.987V551.373H558.947V481.333ZM560.32 482.707V550H627.613V482.707H560.32Z" fill="white" fill-opacity="0.08"/>
<path fill-rule="evenodd" clip-rule="evenodd" d="M628.987 481.333H699.027V551.373H628.987V481.333ZM630.36 482.707V550H697.653V482.707H630.36Z" fill="white" fill-opacity="0.08"/>
<path fill-rule="evenodd" clip-rule="evenodd" d="M699.027 481.333H769.067V551.373H699.027V481.333ZM700.4 482.707V550H767.694V482.707H700.4Z" fill="white" fill-opacity="0.08"/>
<path fill-rule="evenodd" clip-rule="evenodd" d="M769.067 481.333H839.107V551.373H769.067V481.333ZM770.44 482.707V550H837.734V482.707H770.44Z" fill="white" fill-opacity="0.08"/>
<path fill-rule="evenodd" clip-rule="evenodd" d="M839.107 481.333H909.147V551.373H839.107V481.333ZM840.48 482.707V550H907.774V482.707H840.48Z" fill="white" fill-opacity="0.08"/>
<path fill-rule="evenodd" clip-rule="evenodd" d="M909.147 481.333H979.187V551.373H909.147V481.333ZM910.52 482.707V550H977.814V482.707H910.52Z" fill="white" fill-opacity="0.08"/>
<path fill-rule="evenodd" clip-rule="evenodd" d="M979.187 481.333H1049.23V551.373H979.187V481.333ZM980.56 482.707V550H1047.85V482.707H980.56Z" fill="white" fill-opacity="0.08"/>
<path fill-rule="evenodd" clip-rule="evenodd" d="M1049.23 481.333H1119.27V551.373H1049.23V481.333ZM1050.6 482.707V550H1117.89V482.707H1050.6Z" fill="white" fill-opacity="0.08"/>
<path fill-rule="evenodd" clip-rule="evenodd" d="M1119.27 481.333H1189.31V551.373H1119.27V481.333ZM1120.64 482.707V550H1187.93V482.707H1120.64Z" fill="white" fill-opacity="0.08"/>
<path fill-rule="evenodd" clip-rule="evenodd" d="M1189.31 481.333H1259.35V551.373H1189.31V481.333ZM1190.68 482.707V550H1257.97V482.707H1190.68Z" fill="white" fill-opacity="0.08"/>
<path fill-rule="evenodd" clip-rule="evenodd" d="M1259.35 481.333H1329.39V551.373H1259.35V481.333ZM1260.72 482.707V550H1328.01V482.707H1260.72Z" fill="white" fill-opacity="0.08"/>
<path fill-rule="evenodd" clip-rule="evenodd" d="M1329.39 481.333H1399.43V551.373H1329.39V481.333ZM1330.76 482.707V550H1398.05V482.707H1330.76Z" fill="white" fill-opacity="0.08"/>
<path fill-rule="evenodd" clip-rule="evenodd" d="M1399.43 481.333H1469.47V551.373H1399.43V481.333ZM1400.8 482.707V550H1468.09V482.707H1400.8Z" fill="white" fill-opacity="0.08"/>
<path fill-rule="evenodd" clip-rule="evenodd" d="M0 550H70.04V620.04H0V550ZM1.37333 551.373V618.667H68.6667V551.373H1.37333Z" fill="white" fill-opacity="0.08"/>
<path fill-rule="evenodd" clip-rule="evenodd" d="M70.04 550H140.08V620.04H70.04V550ZM71.4134 551.373V618.667H138.707V551.373H71.4134Z" fill="white" fill-opacity="0.08"/>
<path fill-rule="evenodd" clip-rule="evenodd" d="M140.08 550H210.12V620.04H140.08V550ZM141.453 551.373V618.667H208.747V551.373H141.453Z" fill="white" fill-opacity="0.08"/>
<path fill-rule="evenodd" clip-rule="evenodd" d="M210.12 550H280.16V620.04H210.12V550ZM211.493 551.373V618.667H278.787V551.373H211.493Z" fill="white" fill-opacity="0.08"/>
<path fill-rule="evenodd" clip-rule="evenodd" d="M280.16 550H350.2V620.04H280.16V550ZM281.533 551.373V618.667H348.827V551.373H281.533Z" fill="white" fill-opacity="0.08"/>
<path fill-rule="evenodd" clip-rule="evenodd" d="M350.2 550H420.24V620.04H350.2V550ZM351.573 551.373V618.667H418.867V551.373H351.573Z" fill="white" fill-opacity="0.08"/>
<path fill-rule="evenodd" clip-rule="evenodd" d="M420.24 550H490.28V620.04H420.24V550ZM421.613 551.373V618.667H488.907V551.373H421.613Z" fill="white" fill-opacity="0.08"/>
<path fill-rule="evenodd" clip-rule="evenodd" d="M490.28 550H560.32V620.04H490.28V550ZM491.653 551.373V618.667H558.947V551.373H491.653Z" fill="white" fill-opacity="0.08"/>
<path fill-rule="evenodd" clip-rule="evenodd" d="M560.32 550H630.36V620.04H560.32V550ZM561.693 551.373V618.667H628.987V551.373H561.693Z" fill="white" fill-opacity="0.08"/>
<path fill-rule="evenodd" clip-rule="evenodd" d="M630.36 550H700.4V620.04H630.36V550ZM631.733 551.373V618.667H699.027V551.373H631.733Z" fill="white" fill-opacity="0.08"/>
<path fill-rule="evenodd" clip-rule="evenodd" d="M700.4 550H770.44V620.04H700.4V550ZM701.773 551.373V618.667H769.067V551.373H701.773Z" fill="white" fill-opacity="0.08"/>
<path fill-rule="evenodd" clip-rule="evenodd" d="M770.44 550H840.48V620.04H770.44V550ZM771.814 551.373V618.667H839.107V551.373H771.814Z" fill="white" fill-opacity="0.08"/>
<path fill-rule="evenodd" clip-rule="evenodd" d="M840.48 550H910.52V620.04H840.48V550ZM841.854 551.373V618.667H909.147V551.373H841.854Z" fill="white" fill-opacity="0.08"/>
<path fill-rule="evenodd" clip-rule="evenodd" d="M910.52 550H980.56V620.04H910.52V550ZM911.894 551.373V618.667H979.187V551.373H911.894Z" fill="white" fill-opacity="0.08"/>
<path fill-rule="evenodd" clip-rule="evenodd" d="M980.56 550H1050.6V620.04H980.56V550ZM981.934 551.373V618.667H1049.23V551.373H981.934Z" fill="white" fill-opacity="0.08"/>
<path fill-rule="evenodd" clip-rule="evenodd" d="M1050.6 550H1120.64V620.04H1050.6V550ZM1051.97 551.373V618.667H1119.27V551.373H1051.97Z" fill="white" fill-opacity="0.08"/>
<path fill-rule="evenodd" clip-rule="evenodd" d="M1120.64 550H1190.68V620.04H1120.64V550ZM1122.01 551.373V618.667H1189.31V551.373H1122.01Z" fill="white" fill-opacity="0.08"/>
<path fill-rule="evenodd" clip-rule="evenodd" d="M1190.68 550H1260.72V620.04H1190.68V550ZM1192.05 551.373V618.667H1259.35V551.373H1192.05Z" fill="white" fill-opacity="0.08"/>
<path fill-rule="evenodd" clip-rule="evenodd" d="M1260.72 550H1330.76V620.04H1260.72V550ZM1262.09 551.373V618.667H1329.39V551.373H1262.09Z" fill="white" fill-opacity="0.08"/>
<path fill-rule="evenodd" clip-rule="evenodd" d="M1330.76 550H1400.8V620.04H1330.76V550ZM1332.13 551.373V618.667H1399.43V551.373H1332.13Z" fill="white" fill-opacity="0.08"/>
<path fill-rule="evenodd" clip-rule="evenodd" d="M1400.8 550H1470.84V620.04H1400.8V550ZM1402.17 551.373V618.667H1469.47V551.373H1402.17Z" fill="white" fill-opacity="0.08"/>
<path fill-rule="evenodd" clip-rule="evenodd" d="M0 618.667H70.04V688.707H0V618.667ZM1.37333 620.04V687.333H68.6667V620.04H1.37333Z" fill="white" fill-opacity="0.08"/>
<path fill-rule="evenodd" clip-rule="evenodd" d="M70.04 618.667H140.08V688.707H70.04V618.667ZM71.4134 620.04V687.333H138.707V620.04H71.4134Z" fill="white" fill-opacity="0.08"/>
<path fill-rule="evenodd" clip-rule="evenodd" d="M140.08 618.667H210.12V688.707H140.08V618.667ZM141.453 620.04V687.333H208.747V620.04H141.453Z" fill="white" fill-opacity="0.08"/>
<path fill-rule="evenodd" clip-rule="evenodd" d="M210.12 618.667H280.16V688.707H210.12V618.667ZM211.493 620.04V687.333H278.787V620.04H211.493Z" fill="white" fill-opacity="0.08"/>
<path fill-rule="evenodd" clip-rule="evenodd" d="M280.16 618.667H350.2V688.707H280.16V618.667ZM281.533 620.04V687.333H348.827V620.04H281.533Z" fill="white" fill-opacity="0.08"/>
<path fill-rule="evenodd" clip-rule="evenodd" d="M350.2 618.667H420.24V688.707H350.2V618.667ZM351.573 620.04V687.333H418.867V620.04H351.573Z" fill="white" fill-opacity="0.08"/>
<path fill-rule="evenodd" clip-rule="evenodd" d="M420.24 618.667H490.28V688.707H420.24V618.667ZM421.613 620.04V687.333H488.907V620.04H421.613Z" fill="white" fill-opacity="0.08"/>
<path fill-rule="evenodd" clip-rule="evenodd" d="M490.28 618.667H560.32V688.707H490.28V618.667ZM491.653 620.04V687.333H558.947V620.04H491.653Z" fill="white" fill-opacity="0.08"/>
<path fill-rule="evenodd" clip-rule="evenodd" d="M560.32 618.667H630.36V688.707H560.32V618.667ZM561.693 620.04V687.333H628.987V620.04H561.693Z" fill="white" fill-opacity="0.08"/>
<path fill-rule="evenodd" clip-rule="evenodd" d="M630.36 618.667H700.4V688.707H630.36V618.667ZM631.733 620.04V687.333H699.027V620.04H631.733Z" fill="white" fill-opacity="0.08"/>
<path fill-rule="evenodd" clip-rule="evenodd" d="M700.4 618.667H770.44V688.707H700.4V618.667ZM701.773 620.04V687.333H769.067V620.04H701.773Z" fill="white" fill-opacity="0.08"/>
<path fill-rule="evenodd" clip-rule="evenodd" d="M770.44 618.667H840.48V688.707H770.44V618.667ZM771.814 620.04V687.333H839.107V620.04H771.814Z" fill="white" fill-opacity="0.08"/>
<path fill-rule="evenodd" clip-rule="evenodd" d="M840.48 618.667H910.52V688.707H840.48V618.667ZM841.854 620.04V687.333H909.147V620.04H841.854Z" fill="white" fill-opacity="0.08"/>
<path fill-rule="evenodd" clip-rule="evenodd" d="M910.52 618.667H980.56V688.707H910.52V618.667ZM911.894 620.04V687.333H979.187V620.04H911.894Z" fill="white" fill-opacity="0.08"/>
<path fill-rule="evenodd" clip-rule="evenodd" d="M980.56 618.667H1050.6V688.707H980.56V618.667ZM981.934 620.04V687.333H1049.23V620.04H981.934Z" fill="white" fill-opacity="0.08"/>
<path fill-rule="evenodd" clip-rule="evenodd" d="M1050.6 618.667H1120.64V688.707H1050.6V618.667ZM1051.97 620.04V687.333H1119.27V620.04H1051.97Z" fill="white" fill-opacity="0.08"/>
<path fill-rule="evenodd" clip-rule="evenodd" d="M1120.64 618.667H1190.68V688.707H1120.64V618.667ZM1122.01 620.04V687.333H1189.31V620.04H1122.01Z" fill="white" fill-opacity="0.08"/>
<path fill-rule="evenodd" clip-rule="evenodd" d="M1190.68 618.667H1260.72V688.707H1190.68V618.667ZM1192.05 620.04V687.333H1259.35V620.04H1192.05Z" fill="white" fill-opacity="0.08"/>
<path fill-rule="evenodd" clip-rule="evenodd" d="M1260.72 618.667H1330.76V688.707H1260.72V618.667ZM1262.09 620.04V687.333H1329.39V620.04H1262.09Z" fill="white" fill-opacity="0.08"/>
<path fill-rule="evenodd" clip-rule="evenodd" d="M1330.76 618.667H1400.8V688.707H1330.76V618.667ZM1332.13 620.04V687.333H1399.43V620.04H1332.13Z" fill="white" fill-opacity="0.08"/>
<path fill-rule="evenodd" clip-rule="evenodd" d="M1400.8 618.667H1470.84V688.707H1400.8V618.667ZM1402.17 620.04V687.333H1469.47V620.04H1402.17Z" fill="white" fill-opacity="0.08"/>
<path fill-rule="evenodd" clip-rule="evenodd" d="M0 687.333H70.04V757.373H0V687.333ZM1.37333 688.707V756H68.6667V688.707H1.37333Z" fill="white" fill-opacity="0.08"/>
<path fill-rule="evenodd" clip-rule="evenodd" d="M70.04 687.333H140.08V757.373H70.04V687.333ZM71.4134 688.707V756H138.707V688.707H71.4134Z" fill="white" fill-opacity="0.08"/>
<path fill-rule="evenodd" clip-rule="evenodd" d="M140.08 687.333H210.12V757.373H140.08V687.333ZM141.453 688.707V756H208.747V688.707H141.453Z" fill="white" fill-opacity="0.08"/>
<path fill-rule="evenodd" clip-rule="evenodd" d="M210.12 687.333H280.16V757.373H210.12V687.333ZM211.493 688.707V756H278.787V688.707H211.493Z" fill="white" fill-opacity="0.08"/>
<path fill-rule="evenodd" clip-rule="evenodd" d="M280.16 687.333H350.2V757.373H280.16V687.333ZM281.533 688.707V756H348.827V688.707H281.533Z" fill="white" fill-opacity="0.08"/>
<path fill-rule="evenodd" clip-rule="evenodd" d="M350.2 687.333H420.24V757.373H350.2V687.333ZM351.573 688.707V756H418.867V688.707H351.573Z" fill="white" fill-opacity="0.08"/>
<path fill-rule="evenodd" clip-rule="evenodd" d="M420.24 687.333H490.28V757.373H420.24V687.333ZM421.613 688.707V756H488.907V688.707H421.613Z" fill="white" fill-opacity="0.08"/>
<path fill-rule="evenodd" clip-rule="evenodd" d="M490.28 687.333H560.32V757.373H490.28V687.333ZM491.653 688.707V756H558.947V688.707H491.653Z" fill="white" fill-opacity="0.08"/>
<path fill-rule="evenodd" clip-rule="evenodd" d="M560.32 687.333H630.36V757.373H560.32V687.333ZM561.693 688.707V756H628.987V688.707H561.693Z" fill="white" fill-opacity="0.08"/>
<path fill-rule="evenodd" clip-rule="evenodd" d="M630.36 687.333H700.4V757.373H630.36V687.333ZM631.733 688.707V756H699.027V688.707H631.733Z" fill="white" fill-opacity="0.08"/>
<path fill-rule="evenodd" clip-rule="evenodd" d="M700.4 687.333H770.44V757.373H700.4V687.333ZM701.773 688.707V756H769.067V688.707H701.773Z" fill="white" fill-opacity="0.08"/>
<path fill-rule="evenodd" clip-rule="evenodd" d="M770.44 687.333H840.48V757.373H770.44V687.333ZM771.814 688.707V756H839.107V688.707H771.814Z" fill="white" fill-opacity="0.08"/>
<path fill-rule="evenodd" clip-rule="evenodd" d="M840.48 687.333H910.52V757.373H840.48V687.333ZM841.854 688.707V756H909.147V688.707H841.854Z" fill="white" fill-opacity="0.08"/>
<path fill-rule="evenodd" clip-rule="evenodd" d="M910.52 687.333H980.56V757.373H910.52V687.333ZM911.894 688.707V756H979.187V688.707H911.894Z" fill="white" fill-opacity="0.08"/>
<path fill-rule="evenodd" clip-rule="evenodd" d="M980.56 687.333H1050.6V757.373H980.56V687.333ZM981.934 688.707V756H1049.23V688.707H981.934Z" fill="white" fill-opacity="0.08"/>
<path fill-rule="evenodd" clip-rule="evenodd" d="M1050.6 687.333H1120.64V757.373H1050.6V687.333ZM1051.97 688.707V756H1119.27V688.707H1051.97Z" fill="white" fill-opacity="0.08"/>
<path fill-rule="evenodd" clip-rule="evenodd" d="M1120.64 687.333H1190.68V757.373H1120.64V687.333ZM1122.01 688.707V756H1189.31V688.707H1122.01Z" fill="white" fill-opacity="0.08"/>
<path fill-rule="evenodd" clip-rule="evenodd" d="M1190.68 687.333H1260.72V757.373H1190.68V687.333ZM1192.05 688.707V756H1259.35V688.707H1192.05Z" fill="white" fill-opacity="0.08"/>
<path fill-rule="evenodd" clip-rule="evenodd" d="M1260.72 687.333H1330.76V757.373H1260.72V687.333ZM1262.09 688.707V756H1329.39V688.707H1262.09Z" fill="white" fill-opacity="0.08"/>
<path fill-rule="evenodd" clip-rule="evenodd" d="M1330.76 687.333H1400.8V757.373H1330.76V687.333ZM1332.13 688.707V756H1399.43V688.707H1332.13Z" fill="white" fill-opacity="0.08"/>
<path fill-rule="evenodd" clip-rule="evenodd" d="M1400.8 687.333H1470.84V757.373H1400.8V687.333ZM1402.17 688.707V756H1469.47V688.707H1402.17Z" fill="white" fill-opacity="0.08"/>
<path fill-rule="evenodd" clip-rule="evenodd" d="M0 756H70.04V826.04H0V756ZM1.37333 757.373V824.667H68.6667V757.373H1.37333Z" fill="white" fill-opacity="0.08"/>
<path fill-rule="evenodd" clip-rule="evenodd" d="M70.04 756H140.08V826.04H70.04V756ZM71.4134 757.373V824.667H138.707V757.373H71.4134Z" fill="white" fill-opacity="0.08"/>
<path fill-rule="evenodd" clip-rule="evenodd" d="M140.08 756H210.12V826.04H140.08V756ZM141.453 757.373V824.667H208.747V757.373H141.453Z" fill="white" fill-opacity="0.08"/>
<path fill-rule="evenodd" clip-rule="evenodd" d="M210.12 756H280.16V826.04H210.12V756ZM211.493 757.373V824.667H278.787V757.373H211.493Z" fill="white" fill-opacity="0.08"/>
<path fill-rule="evenodd" clip-rule="evenodd" d="M280.16 756H350.2V826.04H280.16V756ZM281.533 757.373V824.667H348.827V757.373H281.533Z" fill="white" fill-opacity="0.08"/>
<path fill-rule="evenodd" clip-rule="evenodd" d="M350.2 756H420.24V826.04H350.2V756ZM351.573 757.373V824.667H418.867V757.373H351.573Z" fill="white" fill-opacity="0.08"/>
<path fill-rule="evenodd" clip-rule="evenodd" d="M420.24 756H490.28V826.04H420.24V756ZM421.613 757.373V824.667H488.907V757.373H421.613Z" fill="white" fill-opacity="0.08"/>
<path fill-rule="evenodd" clip-rule="evenodd" d="M490.28 756H560.32V826.04H490.28V756ZM491.653 757.373V824.667H558.947V757.373H491.653Z" fill="white" fill-opacity="0.08"/>
<path fill-rule="evenodd" clip-rule="evenodd" d="M560.32 756H630.36V826.04H560.32V756ZM561.693 757.373V824.667H628.987V757.373H561.693Z" fill="white" fill-opacity="0.08"/>
<path fill-rule="evenodd" clip-rule="evenodd" d="M630.36 756H700.4V826.04H630.36V756ZM631.733 757.373V824.667H699.027V757.373H631.733Z" fill="white" fill-opacity="0.08"/>
<path fill-rule="evenodd" clip-rule="evenodd" d="M700.4 756H770.44V826.04H700.4V756ZM701.773 757.373V824.667H769.067V757.373H701.773Z" fill="white" fill-opacity="0.08"/>
<path fill-rule="evenodd" clip-rule="evenodd" d="M770.44 756H840.48V826.04H770.44V756ZM771.814 757.373V824.667H839.107V757.373H771.814Z" fill="white" fill-opacity="0.08"/>
<path fill-rule="evenodd" clip-rule="evenodd" d="M840.48 756H910.52V826.04H840.48V756ZM841.854 757.373V824.667H909.147V757.373H841.854Z" fill="white" fill-opacity="0.08"/>
<path fill-rule="evenodd" clip-rule="evenodd" d="M910.52 756H980.56V826.04H910.52V756ZM911.894 757.373V824.667H979.187V757.373H911.894Z" fill="white" fill-opacity="0.08"/>
<path fill-rule="evenodd" clip-rule="evenodd" d="M980.56 756H1050.6V826.04H980.56V756ZM981.934 757.373V824.667H1049.23V757.373H981.934Z" fill="white" fill-opacity="0.08"/>
<path fill-rule="evenodd" clip-rule="evenodd" d="M1050.6 756H1120.64V826.04H1050.6V756ZM1051.97 757.373V824.667H1119.27V757.373H1051.97Z" fill="white" fill-opacity="0.08"/>
<path fill-rule="evenodd" clip-rule="evenodd" d="M1120.64 756H1190.68V826.04H1120.64V756ZM1122.01 757.373V824.667H1189.31V757.373H1122.01Z" fill="white" fill-opacity="0.08"/>
<path fill-rule="evenodd" clip-rule="evenodd" d="M1190.68 756H1260.72V826.04H1190.68V756ZM1192.05 757.373V824.667H1259.35V757.373H1192.05Z" fill="white" fill-opacity="0.08"/>
<path fill-rule="evenodd" clip-rule="evenodd" d="M1260.72 756H1330.76V826.04H1260.72V756ZM1262.09 757.373V824.667H1329.39V757.373H1262.09Z" fill="white" fill-opacity="0.08"/>
<path fill-rule="evenodd" clip-rule="evenodd" d="M1330.76 756H1400.8V826.04H1330.76V756ZM1332.13 757.373V824.667H1399.43V757.373H1332.13Z" fill="white" fill-opacity="0.08"/>
<path fill-rule="evenodd" clip-rule="evenodd" d="M1400.8 756H1470.84V826.04H1400.8V756ZM1402.17 757.373V824.667H1469.47V757.373H1402.17Z" fill="white" fill-opacity="0.08"/>
</g>
<defs>
<clipPath id="clip0_52_10">
<rect width="1442" height="855" fill="white"/>
</clipPath>
</defs>
</svg>
