<svg width="36" height="35" viewBox="0 0 36 35" fill="none" xmlns="http://www.w3.org/2000/svg">
<g filter="url(#filter0_d_238_132)">
<path d="M30.6312 13.5602H10.5687L18.35 6.11641C19.4656 4.94453 19.4656 3.05078 18.35 1.87891C17.2344 0.707031 15.425 0.707031 14.3 1.87891L1.34375 14.4414C0.78125 14.9852 0.5 15.7258 0.5 16.5414V16.5789C0.5 17.3945 0.78125 18.1352 1.34375 18.6789L14.2906 31.2414C15.4156 32.4133 17.225 32.4133 18.3406 31.2414C19.4562 30.0695 19.4562 28.1758 18.3406 27.0039L10.5594 19.5602H30.6219C32.2062 19.5602 33.4906 18.2195 33.4906 16.5602C33.5 14.8727 32.2156 13.5602 30.6312 13.5602Z" fill="white"/>
<path d="M30.6312 13.5602H10.5687L18.35 6.11641C19.4656 4.94453 19.4656 3.05078 18.35 1.87891C17.2344 0.707031 15.425 0.707031 14.3 1.87891L1.34375 14.4414C0.78125 14.9852 0.5 15.7258 0.5 16.5414V16.5789C0.5 17.3945 0.78125 18.1352 1.34375 18.6789L14.2906 31.2414C15.4156 32.4133 17.225 32.4133 18.3406 31.2414C19.4562 30.0695 19.4562 28.1758 18.3406 27.0039L10.5594 19.5602H30.6219C32.2062 19.5602 33.4906 18.2195 33.4906 16.5602C33.5 14.8727 32.2156 13.5602 30.6312 13.5602Z" stroke="#4C3EEE"/>
</g>
<defs>
<filter id="filter0_d_238_132" x="0" y="0.5" width="35.9907" height="34.1204" filterUnits="userSpaceOnUse" color-interpolation-filters="sRGB">
<feFlood flood-opacity="0" result="BackgroundImageFix"/>
<feColorMatrix in="SourceAlpha" type="matrix" values="0 0 0 0 0 0 0 0 0 0 0 0 0 0 0 0 0 0 127 0" result="hardAlpha"/>
<feOffset dx="2" dy="2"/>
<feComposite in2="hardAlpha" operator="out"/>
<feColorMatrix type="matrix" values="0 0 0 0 1 0 0 0 0 0.823529 0 0 0 0 0 0 0 0 1 0"/>
<feBlend mode="normal" in2="BackgroundImageFix" result="effect1_dropShadow_238_132"/>
<feBlend mode="normal" in="SourceGraphic" in2="effect1_dropShadow_238_132" result="shape"/>
</filter>
</defs>
</svg>
